0
SECTION
2
HEADER
9
$INSUNITS
70
4
9
$ACADVER
1
AC1014
9
$HANDSEED
5
FFFF
0
ENDSEC
0
SECTION
2
TABLES
0
TABLE
2
VPORT
5
8
100
AcDbSymbolTable
0
ENDTAB
0
TABLE
2
LTYPE
5
5
100
AcDbSymbolTable
0
LTYPE
5
14
100
AcDbSymbolTableRecord
100
AcDbLinetypeTableRecord
2
BYBLOCK
70
0
0
LTYPE
5
15
100
AcDbSymbolTableRecord
100
AcDbLinetypeTableRecord
2
BYLAYER
70
0
0
ENDTAB
0
TABLE
2
LAYER
5
2
100
AcDbSymbolTable
70
2
0
LAYER
5
50
100
AcDbSymbolTableRecord
100
AcDbLayerTableRecord
2
0
70
0
6
CONTINUOUS
0
ENDTAB
0
TABLE
2
STYLE
5
3
100
AcDbSymbolTable
70
1
0
STYLE
5
11
100
AcDbSymbolTableRecord
100
AcDbTextStyleTableRecord
2
STANDARD
70
0
0
ENDTAB
0
TABLE
2
VIEW
5
6
100
AcDbSymbolTable
70
0
0
ENDTAB
0
TABLE
2
UCS
5
7
100
AcDbSymbolTable
70
0
0
ENDTAB
0
TABLE
2
APPID
5
9
100
AcDbSymbolTable
70
2
0
APPID
5
12
100
AcDbSymbolTableRecord
100
AcDbRegAppTableRecord
2
ACAD
70
0
0
ENDTAB
0
TABLE
2
DIMSTYLE
5
A
100
AcDbSymbolTable
70
1
0
ENDTAB
0
TABLE
2
BLOCK_RECORD
5
1
100
AcDbSymbolTable
70
1
0
BLOCK_RECORD
5
1F
100
AcDbSymbolTableRecord
100
AcDbBlockTableRecord
2
*MODEL_SPACE
0
BLOCK_RECORD
5
1B
100
AcDbSymbolTableRecord
100
AcDbBlockTableRecord
2
*PAPER_SPACE
0
ENDTAB
0
ENDSEC
0
SECTION
2
BLOCKS
0
BLOCK
5
20
100
AcDbEntity
100
AcDbBlockBegin
2
*MODEL_SPACE
0
ENDBLK
5
21
100
AcDbEntity
100
AcDbBlockEnd
0
BLOCK
5
1C
100
AcDbEntity
100
AcDbBlockBegin
2
*PAPER_SPACE
0
ENDBLK
5
1D
100
AcDbEntity
100
AcDbBlockEnd
0
ENDSEC
0
SECTION
2
ENTITIES
0
CIRCLE
5
100
100
AcDbEntity
8
0
100
AcDbCircle
10
0
20
0
30
0
40
16.5
0
CIRCLE
5
101
100
AcDbEntity
8
0
100
AcDbCircle
10
45
20
0
30
0
40
16.500000000000004
0
CIRCLE
5
102
100
AcDbEntity
8
0
100
AcDbCircle
10
-45
20
0
30
0
40
16.500000000000004
0
LWPOLYLINE
5
103
100
AcDbEntity
8
0
100
AcDbPolyline
90
52
70
1
43
0.0
10
77
20
-35.714285714285715
10
77
20
-50
10
57.142857142857146
20
-50
10
57.142857142857871
20
-47
10
34.285714285714263
20
-47
10
34.285714285714292
20
-50
10
11.42857142857177
20
-50
10
11.428571428571747
20
-47
10
-11.428571428571113
20
-47
10
-11.428571428571095
20
-50
10
-34.28571428571361
20
-50
10
-34.285714285713631
20
-47.000000000000455
10
-57.142857142857231
20
-47.000000000000753
10
-57.142857142856471
20
-50.000000000000753
10
-77
20
-50
10
-77
20
-35.714285714276784
10
-80
20
-35.714285714276784
10
-80
20
-21.428571428562488
10
-77
20
-21.428571428562488
10
-77
20
-7.1428571428526233
10
-80
20
-7.1428571428526233
10
-80
20
7.142857142861665
10
-77
20
7.142857142861665
10
-77
20
21.428571428571544
10
-80
20
21.428571428571544
10
-80
20
35.714285714285836
10
-77
20
35.714285714285836
10
-77
20
50
10
-57.142857142856478
20
50
10
-57.142857142857238
20
47.000000000000774
10
-34.28571428571361
20
47.000000000000469
10
-34.285714285713595
20
50
10
-11.428571428571086
20
50
10
-11.428571428571111
20
47
10
11.428571428571754
20
47
10
11.428571428571779
20
50
10
34.285714285714299
20
50
10
34.285714285714278
20
46.999999999999986
10
57.142857142857878
20
46.999999999999986
10
57.142857142857139
20
50
10
77
20
50
10
77
20
35.714285714285715
10
80
20
35.714285714285715
10
80
20
21.428571428571438
10
77
20
21.428571428571438
10
77
20
7.1428571428571477
10
80
20
7.1428571428571477
10
80
20
-7.1428571428571388
10
77
20
-7.1428571428571397
10
77
20
-21.428571428571438
10
80
20
-21.428571428571438
10
80
20
-35.714285714285715
0
ENDSEC
0
SECTION
2
OBJECTS
0
DICTIONARY
5
C
100
AcDbDictionary
3
ACAD_GROUP
350
D
3
ACAD_MLINESTYLE
350
17
0
DICTIONARY
5
D
100
AcDbDictionary
0
DICTIONARY
5
1A
330
C
100
AcDbDictionary
0
DICTIONARY
5
17
100
AcDbDictionary
0
ENDSEC
0
EOF
