0
SECTION
2
HEADER
9
$INSUNITS
70
4
9
$ACADVER
1
AC1014
9
$HANDSEED
5
FFFF
0
ENDSEC
0
SECTION
2
TABLES
0
TABLE
2
VPORT
5
8
100
AcDbSymbolTable
0
ENDTAB
0
TABLE
2
LTYPE
5
5
100
AcDbSymbolTable
0
LTYPE
5
14
100
AcDbSymbolTableRecord
100
AcDbLinetypeTableRecord
2
BYBLOCK
70
0
0
LTYPE
5
15
100
AcDbSymbolTableRecord
100
AcDbLinetypeTableRecord
2
BYLAYER
70
0
0
ENDTAB
0
TABLE
2
LAYER
5
2
100
AcDbSymbolTable
70
2
0
LAYER
5
50
100
AcDbSymbolTableRecord
100
AcDbLayerTableRecord
2
0
70
0
6
CONTINUOUS
0
ENDTAB
0
TABLE
2
STYLE
5
3
100
AcDbSymbolTable
70
1
0
STYLE
5
11
100
AcDbSymbolTableRecord
100
AcDbTextStyleTableRecord
2
STANDARD
70
0
0
ENDTAB
0
TABLE
2
VIEW
5
6
100
AcDbSymbolTable
70
0
0
ENDTAB
0
TABLE
2
UCS
5
7
100
AcDbSymbolTable
70
0
0
ENDTAB
0
TABLE
2
APPID
5
9
100
AcDbSymbolTable
70
2
0
APPID
5
12
100
AcDbSymbolTableRecord
100
AcDbRegAppTableRecord
2
ACAD
70
0
0
ENDTAB
0
TABLE
2
DIMSTYLE
5
A
100
AcDbSymbolTable
70
1
0
ENDTAB
0
TABLE
2
BLOCK_RECORD
5
1
100
AcDbSymbolTable
70
1
0
BLOCK_RECORD
5
1F
100
AcDbSymbolTableRecord
100
AcDbBlockTableRecord
2
*MODEL_SPACE
0
BLOCK_RECORD
5
1B
100
AcDbSymbolTableRecord
100
AcDbBlockTableRecord
2
*PAPER_SPACE
0
ENDTAB
0
ENDSEC
0
SECTION
2
BLOCKS
0
BLOCK
5
20
100
AcDbEntity
100
AcDbBlockBegin
2
*MODEL_SPACE
0
ENDBLK
5
21
100
AcDbEntity
100
AcDbBlockEnd
0
BLOCK
5
1C
100
AcDbEntity
100
AcDbBlockBegin
2
*PAPER_SPACE
0
ENDBLK
5
1D
100
AcDbEntity
100
AcDbBlockEnd
0
ENDSEC
0
SECTION
2
ENTITIES
0
LWPOLYLINE
5
100
100
AcDbEntity
8
0
100
AcDbPolyline
90
52
70
1
43
0.0
10
7.1428571428530718
20
27.000000000002128
10
7.1428571428526233
20
30
10
21.428571428562488
20
30
10
21.428571428563398
20
27.000000000006381
10
35.714285714277679
20
27.000000000010637
10
35.714285714276784
20
30.00000000001063
10
50
20
30
10
50
20
21.428571428586327
10
46.999999999993626
20
21.428571428585439
10
46.999999999996206
20
12.857142857156823
10
50
20
12.85714285715776
10
50
20
4.285714285721725
10
47
20
4.2857142857212791
10
47
20
-4.2857142857072921
10
50
20
-4.2857142857068453
10
50
20
-12.857142857142883
10
47.000000000000014
20
-12.857142857142838
10
47
20
-21.428571428571445
10
50
20
-21.428571428571441
10
50
20
-30
10
35.714285714285708
20
-30
10
35.714285714285708
20
-27
10
21.428571428571427
20
-27
10
21.42857142857142
20
-30
10
7.1428571428615406
20
-30
10
7.1428571428611018
20
-27
10
-7.142857142853182
20
-27
10
-7.1428571428527388
20
-30
10
-21.428571428562613
20
-30
10
-21.428571428563504
20
-27.000000000006288
10
-35.714285714277793
20
-27.000000000010466
10
-35.714285714276912
20
-30.000000000010481
10
-50
20
-30
10
-49.999999999993712
20
-21.4285714285861
10
-46.999999999993712
20
-21.428571428585236
10
-46.999999999996248
20
-12.857142857156623
10
-49.999999999996234
20
-12.857142857157552
10
-49.999999999998735
20
-4.2857142857215109
10
-46.999999999998742
20
-4.2857142857210757
10
-47.000000000001265
20
4.2857142857074946
10
-50.000000000001265
20
4.2857142857070594
10
-49.999999999999964
20
12.857142857143087
10
-46.999999999999972
20
12.857142857143039
10
-46.999999999999915
20
21.428571428571654
10
-49.999999999999915
20
21.428571428571676
10
-50
20
30
10
-35.714285714285836
20
30
10
-35.714285714285822
20
26.999999999999833
10
-21.428571428571534
20
26.999999999999915
10
-21.428571428571544
20
29.999999999999915
10
-7.142857142861665
20
30
10
-7.142857142861212
20
26.999999999997879
0
ENDSEC
0
SECTION
2
OBJECTS
0
DICTIONARY
5
C
100
AcDbDictionary
3
ACAD_GROUP
350
D
3
ACAD_MLINESTYLE
350
17
0
DICTIONARY
5
D
100
AcDbDictionary
0
DICTIONARY
5
1A
330
C
100
AcDbDictionary
0
DICTIONARY
5
17
100
AcDbDictionary
0
ENDSEC
0
EOF
